<?xml version="1.0" encoding="utf-8"?><svg viewBox="0 0 20 20" xmlns="http://www.w3.org/2000/svg" xmlns:xlink="http://www.w3.org/1999/xlink"><style>:root>svg{display:none}:root>svg:target{display:block}</style><svg viewBox="0 0 20 20" fill="none" id="cart" xmlns="http://www.w3.org/2000/svg"><path fill-rule="evenodd" clip-rule="evenodd" d="M5.861 5C6.106 3.18 7.926 1.667 10 1.667c2.074 0 3.894 1.512 4.139 3.333h2.4a1.667 1.667 0 011.65 1.902l-1.428 10a1.667 1.667 0 01-1.65 1.431H4.889c-.829 0-1.532-.61-1.65-1.43l-1.428-10A1.667 1.667 0 013.461 5h2.4zm6.579 0c-.253-.885-1.275-1.667-2.44-1.667S7.813 4.115 7.56 5h4.88zM3.46 6.667h2.373v1.666H7.5V6.667h5v1.666h1.667V6.667h2.372l-1.428 10H4.889l-1.428-10z" fill="#000"/></svg><svg viewBox="0 0 20 20" id="fav" xmlns="http://www.w3.org/2000/svg"><path d="M13.794 1.667c-1.206 0-1.984.143-2.875.58-.33.161-.64.356-.927.583a5.25 5.25 0 00-.89-.557c-.91-.449-1.727-.606-2.89-.606C3.097 1.667.833 4.247.833 7.6c0 2.532 1.412 4.977 4.041 7.342 1.38 1.24 3.142 2.47 4.404 3.123l.722.373.722-.373c1.262-.654 3.024-1.882 4.404-3.123 2.63-2.365 4.04-4.81 4.04-7.342 0-3.317-2.284-5.92-5.372-5.933zM17.5 7.6c0 1.983-1.178 4.024-3.489 6.102-1.26 1.133-2.878 2.265-4.011 2.86-1.132-.595-2.752-1.727-4.011-2.86C3.679 11.624 2.5 9.583 2.5 7.6c0-2.477 1.57-4.267 3.712-4.267.925 0 1.495.11 2.15.434.388.192.73.445 1.027.761l.613.654.607-.659c.304-.329.651-.588 1.043-.78.636-.31 1.17-.41 2.139-.41 2.116.01 3.709 1.824 3.709 4.267z"/></svg><svg viewBox="0 0 20 20" fill="none" id="search" xmlns="http://www.w3.org/2000/svg"><path fill-rule="evenodd" clip-rule="evenodd" d="M8.333 15a6.667 6.667 0 115.267-2.579l4.49 4.49-1.18 1.178-4.489-4.49A6.638 6.638 0 018.333 15zm5-6.667a5 5 0 11-10 0 5 5 0 0110 0z" fill="#000"/></svg><svg viewBox="0 0 20 20" fill="none" id="user" xmlns="http://www.w3.org/2000/svg"><path d="M10 9.167A3.333 3.333 0 1010 2.5a3.333 3.333 0 000 6.667zM5 17.5v-1.667A3.333 3.333 0 018.333 12.5h3.334A3.333 3.333 0 0115 15.833V17.5" stroke="#000" stroke-width="1.5" stroke-linecap="round" stroke-linejoin="round"/></svg></svg>